<?xml version="1.0" encoding="utf-8"?>
<!-- Generator: Adobe Illustrator 16.0.0, SVG Export Plug-In . SVG Version: 6.00 Build 0)  -->
<!DOCTYPE svg PUBLIC "-//W3C//DTD SVG 1.1//EN" "http://www.w3.org/Graphics/SVG/1.1/DTD/svg11.dtd">
<svg version="1.1" id="矩形_15_1_" xmlns="http://www.w3.org/2000/svg" xmlns:xlink="http://www.w3.org/1999/xlink" x="0px"
	 y="0px" width="32px" height="32px" viewBox="0 0 32 32" enable-background="new 0 0 32 32" xml:space="preserve">
<g id="矩形_15">
	<g>
		<path fill="#6A6A6A" d="M22.125,2.531V0h-2.531v2.531h-7.282V0.062H9.875v2.469H2.5v4.844h27V2.531H22.125z M2.5,32h27V9.843h-27
			V32z M22.125,14.75H24.5v2.531h-2.375V14.75z M22.125,19.688H24.5v2.531h-2.375V19.688z M22.125,24.594H24.5v2.531h-2.375V24.594z
			 M17.219,14.75h2.375v2.531h-2.375V14.75z M17.219,19.688h2.375v2.531h-2.375V19.688z M17.219,24.594h2.375v2.531h-2.375V24.594z
			 M12.312,14.75h2.375v2.531h-2.375V14.75z M12.312,19.688h2.375v2.531h-2.375V19.688z M12.312,24.594h2.375v2.531h-2.375V24.594z
			 M7.406,14.75h2.375v2.531H7.406V14.75z M7.406,19.688h2.375v2.531H7.406V19.688z M7.406,24.594h2.375v2.531H7.406V24.594z"/>
	</g>
</g>
</svg>
